<svg width="64" height="19" viewBox="0 0 64 19" fill="none" xmlns="http://www.w3.org/2000/svg">
<path d="M0.72 9.6V3.6L4.56 1.2H10.08V18H3.84V7.68L0.72 9.6ZM12.3713 18V13.08L18.1313 10.08C19.7473 9.248 20.7713 8.656 21.2033 8.304C21.6353 7.936 21.8513 7.528 21.8513 7.08C21.8513 6.728 21.6993 6.424 21.3953 6.168C21.1073 5.896 20.6993 5.76 20.1713 5.76C19.4673 5.76 18.9393 6 18.5872 6.48C18.4433 6.672 18.3313 6.912 18.2513 7.2H12.2513C12.4753 6 12.9073 4.92 13.5473 3.96C15.0353 1.8 17.3233 0.719999 20.4113 0.719999C22.7793 0.719999 24.6513 1.296 26.0273 2.448C27.4033 3.584 28.0913 4.968 28.0913 6.6C28.0913 7.336 27.9393 8.032 27.6353 8.688C27.3313 9.344 26.9633 9.888 26.5312 10.32C26.1153 10.736 25.6273 11.12 25.0673 11.472C24.5073 11.824 24.0353 12.088 23.6512 12.264C23.2833 12.424 22.9153 12.568 22.5473 12.696L22.0913 12.84L21.6113 12.96L21.2513 13.08V13.344L22.9313 13.08H28.0913V18H12.3713ZM29.7619 15.72C29.7619 15 30.0179 14.384 30.5299 13.872C31.0579 13.344 31.6819 13.08 32.4019 13.08C33.1059 13.08 33.7219 13.344 34.2499 13.872C34.7779 14.4 35.0419 15.016 35.0419 15.72C35.0419 16.44 34.7779 17.064 34.2499 17.592C33.7379 18.104 33.1219 18.36 32.4019 18.36C31.6659 18.36 31.0419 18.104 30.5299 17.592C30.0179 17.08 29.7619 16.456 29.7619 15.72ZM29.7619 7.56C29.7619 6.84 30.0179 6.224 30.5299 5.712C31.0579 5.184 31.6819 4.92 32.4019 4.92C33.1059 4.92 33.7219 5.184 34.2499 5.712C34.7779 6.24 35.0419 6.856 35.0419 7.56C35.0419 8.28 34.7779 8.904 34.2499 9.432C33.7379 9.944 33.1219 10.2 32.4019 10.2C31.6659 10.2 31.0419 9.944 30.5299 9.432C30.0179 8.92 29.7619 8.296 29.7619 7.56ZM36.7228 18V13.08L42.4828 10.08C44.0988 9.248 45.1228 8.656 45.5548 8.304C45.9868 7.936 46.2028 7.528 46.2028 7.08C46.2028 6.728 46.0508 6.424 45.7468 6.168C45.4588 5.896 45.0508 5.76 44.5228 5.76C43.8188 5.76 43.2908 6 42.9388 6.48C42.7948 6.672 42.6828 6.912 42.6028 7.2H36.6028C36.8268 6 37.2588 4.92 37.8988 3.96C39.3868 1.8 41.6748 0.719999 44.7628 0.719999C47.1308 0.719999 49.0028 1.296 50.3788 2.448C51.7548 3.584 52.4428 4.968 52.4428 6.6C52.4428 7.336 52.2908 8.032 51.9868 8.688C51.6828 9.344 51.3148 9.888 50.8828 10.32C50.4668 10.736 49.9788 11.12 49.4188 11.472C48.8588 11.824 48.3868 12.088 48.0028 12.264C47.6348 12.424 47.2668 12.568 46.8988 12.696L46.4428 12.84L45.9628 12.96L45.6028 13.08V13.344L47.2828 13.08H52.4428V18H36.7228ZM53.9934 9.6V3.6L57.8334 1.2H63.3534V18H57.1134V7.68L53.9934 9.6Z" fill="white"/>
</svg>
